<?xml version="1.0" standalone="no"?>
<!DOCTYPE svg PUBLIC "-//W3C//DTD SVG 20010904//EN"
 "http://www.w3.org/TR/2001/REC-SVG-20010904/DTD/svg10.dtd">
<svg version="1.0" xmlns="http://www.w3.org/2000/svg"
 width="512.000000pt" height="512.000000pt" viewBox="0 0 512.000000 512.000000"
 preserveAspectRatio="xMidYMid meet">

<g transform="translate(0.000000,512.000000) scale(0.100000,-0.100000)"
fill="#4CAF50" stroke="none">
<path d="M2173 4749 c-53 -26 -99 -77 -113 -126 -5 -21 -18 -82 -27 -135 -19
-113 -10 -108 -140 -83 -128 25 -182 21 -239 -17 -116 -78 -130 -233 -29 -331
41 -40 68 -50 214 -75 l96 -17 -2 -30 c-2 -25 -434 -2487 -437 -2491 -1 -1
-48 7 -106 18 -178 33 -258 13 -320 -79 -21 -31 -25 -48 -25 -113 0 -65 4 -82
25 -113 44 -65 86 -86 219 -111 66 -12 123 -24 126 -27 3 -4 -4 -59 -15 -124
-24 -132 -21 -174 17 -232 67 -104 193 -130 297 -62 60 40 89 103 112 242 14
88 20 107 33 103 9 -3 102 -19 206 -37 105 -18 192 -34 194 -35 2 -2 -6 -58
-18 -125 -27 -150 -20 -194 41 -264 71 -80 180 -95 270 -35 64 42 87 92 112
239 l22 126 90 6 c221 16 414 103 578 259 132 126 204 246 262 436 26 82 28
102 28 264 0 162 -2 181 -28 265 -32 104 -89 219 -150 301 l-43 57 71 48 c143
95 284 271 345 427 59 154 66 193 65 377 0 156 -3 177 -28 260 -32 105 -96
230 -160 313 -89 116 -237 231 -373 288 -74 31 -71 22 -42 184 22 126 19 163
-20 227 -69 112 -244 124 -335 23 -39 -43 -47 -67 -72 -210 -14 -77 -21 -100
-33 -100 -28 1 -392 67 -397 73 -4 3 3 61 15 129 17 98 19 131 10 163 -35 132
-180 202 -296 144z m547 -923 c340 -60 396 -73 481 -116 183 -93 281 -253 280
-460 0 -258 -155 -461 -396 -520 -99 -24 -221 -13 -568 48 -180 32 -330 61
-333 65 -3 3 35 237 85 520 50 283 91 518 91 522 0 4 10 5 23 2 12 -3 164 -31
337 -61z m-258 -1471 c174 -31 341 -63 370 -71 182 -54 317 -181 369 -344 24
-77 29 -207 9 -290 -34 -148 -135 -281 -263 -343 -159 -79 -246 -79 -689 1
-180 32 -330 61 -333 64 -3 3 35 236 85 519 49 282 90 517 90 521 0 5 10 6 23
3 12 -2 165 -30 339 -60z"/>
</g>
</svg>
